classDiagram
    Subject <|.. StudentEnrollRequest: implements
    Observer <|.. EnrollRequestObserver: implements
    StudentEnrollRequest "0" --> "*" Observer : Association
    EnrollRequestObserver "0" --> "*" Subject : Association
    class Observer{
        &lt;&lt;interface&gt;&gt;
        +update(): void
        +registerRequest(Subject): void
        +unregisterRequest(Subject): void
        +setEnrollment(Subject): void
        +removeEnrollment(Subject): void
    }
    class EnrollRequestObserver{
        -list enrollRequests
        +update(): void
        +registerRequest(Subject): void
        +unregisterRequest(Subject): void
        +setEnrollment(Subject): void
        +removeEnrollment(Subject): void
    }
    class Subject{
        &lt;&lt;interface&gt;&gt;
        +registerObserver(Observer):void
        +unregisterObserver(Observer):void
        +requestEnroll():void
        +getState():Object
        +setState(Object):void
    }
    class StudentEnrollRequest{
        -int classID
        -int studentID
        -list observer
        +registerObserver(Observer):void
        +unregisterObserver(Observer):void
        +requestEnroll():void
        +getState():Object
        +setState(Object):void
    }
